# xmcd
#
# Track frame offsets: 
#        150
#        18508
#        30747
#        42109
#        53023
#        67657
#        79606
#        93397
#        106693
#        117588
#        129446
#        140155
#        148958
#        160675
#        172401
#        187351
#        198483
#        210709
#        224765
#        239953
#
# Disc length: 3336 seconds
#
# Revision: 0
# Processed by: cddbd v1.5.1PL2 Copyright (c) Steve Scherf et al.
# Submitted via: ExactAudioCopy v0.95b3
#
DISCID=380d0614
DTITLE=Various Artist - 60 Country Legends - Diamond Collection - Disc 2
DYEAR=1900
DGENRE=Country
TTITLE0=Kenny Rogers - The King Of Oak Street
TTITLE1=Moe Bandy - Good Old Boys
TTITLE2=Jack Greene - Back In The Arms Of Love
TTITLE3=Janie Fricke - Down To My Last Broken Heart
TTITLE4=Boxcar Willie - Freightliner Fever
TTITLE5=Roy Drusky - Luckenbach Texas
TTITLE6=Freddy Fender - The Rains Came
TTITLE7=Donna Fargo - Somebody Special
TTITLE8=Billie Jo Spears - If It Ain't Love
TTITLE9=Willie Nelson - Night Life
TTITLE10=Jerry Wallace - Primrose Lane
TTITLE11=Patsy Cline - Come On In
TTITLE12=Cowboy Copas - Memories Of You
TTITLE13=Kenny Rogers - Elvira
TTITLE14=Willie Nelson - Face Of A Fighter
TTITLE15=Ferlin Husky - San Antonio Rose
TTITLE16=Alabama - Loving You Is Killing Me
TTITLE17=Lacy J. Dalton - Tenessee Waltz
TTITLE18=Jeanne Pruett - Satin Sheets
TTITLE19=Patsy Cline - Three Cigarettes In The Ashtray
EXTD=
EXTT0=
EXTT1=
EXTT2=
EXTT3=
EXTT4=
EXTT5=
EXTT6=
EXTT7=
EXTT8=
EXTT9=
EXTT10=
EXTT11=
EXTT12=
EXTT13=
EXTT14=
EXTT15=
EXTT16=
EXTT17=
EXTT18=
EXTT19=
PLAYORDER=
